<mxfile host="65bd71144e">
    <diagram id="Tc5p6WjxUIoLzOQ5GlJy" name="Page-1">
        <mxGraphModel dx="1086" dy="774" grid="1" gridSize="10" guides="1" tooltips="1" connect="1" arrows="1" fold="1" page="1" pageScale="1" pageWidth="850" pageHeight="1100" math="0" shadow="0">
            <root>
                <mxCell id="0"/>
                <mxCell id="1" parent="0"/>
                <mxCell id="2" value="" style="whiteSpace=wrap;html=1;" vertex="1" parent="1">
                    <mxGeometry x="40" y="63" width="760" height="55" as="geometry"/>
                </mxCell>
                <mxCell id="3" value="Arithmetic Sequence, in JavaScript" style="text;html=1;align=center;verticalAlign=middle;resizable=0;points=[];autosize=1;strokeColor=none;fillColor=none;fontSize=30;fontStyle=1" vertex="1" parent="1">
                    <mxGeometry x="180" y="68" width="490" height="50" as="geometry"/>
                </mxCell>
                <mxCell id="4" value="http://ics2o.mths.ca" style="swimlane;whiteSpace=wrap;html=1;" vertex="1" parent="1">
                    <mxGeometry x="40" y="40" width="760" height="480" as="geometry"/>
                </mxCell>
                <mxCell id="8" value="Please enter in the starting value, the common difference, and how many terms&lt;div&gt;&lt;span style=&quot;background-color: transparent;&quot;&gt;&lt;font style=&quot;color: light-dark(rgb(192, 192, 192), rgb(255, 255, 255));&quot;&gt;it should generate:&lt;/font&gt;&lt;/span&gt;&lt;/div&gt;" style="text;html=1;align=left;verticalAlign=middle;resizable=0;points=[];autosize=1;strokeColor=none;fillColor=none;fontSize=20;fontColor=light-dark(#000000,#FFFFFF);" vertex="1" parent="4">
                    <mxGeometry x="20" y="90" width="730" height="60" as="geometry"/>
                </mxCell>
                <mxCell id="10" value="Starting value..." style="rounded=1;whiteSpace=wrap;html=1;" vertex="1" parent="4">
                    <mxGeometry x="150" y="180" width="180" height="30" as="geometry"/>
                </mxCell>
                <mxCell id="11" value="Starting Value:" style="text;html=1;align=center;verticalAlign=middle;resizable=0;points=[];autosize=1;strokeColor=none;fillColor=none;" vertex="1" parent="4">
                    <mxGeometry x="20" y="180" width="100" height="30" as="geometry"/>
                </mxCell>
                <mxCell id="13" value="Common Difference..." style="rounded=1;whiteSpace=wrap;html=1;" vertex="1" parent="4">
                    <mxGeometry x="150" y="240" width="180" height="30" as="geometry"/>
                </mxCell>
                <mxCell id="14" value="Common Difference:" style="text;html=1;align=center;verticalAlign=middle;resizable=0;points=[];autosize=1;strokeColor=none;fillColor=none;" vertex="1" parent="4">
                    <mxGeometry x="10" y="240" width="140" height="30" as="geometry"/>
                </mxCell>
                <mxCell id="15" value="Number of terms..." style="rounded=1;whiteSpace=wrap;html=1;" vertex="1" parent="4">
                    <mxGeometry x="150" y="300" width="180" height="30" as="geometry"/>
                </mxCell>
                <mxCell id="16" value="Number of Terms:" style="text;html=1;align=center;verticalAlign=middle;resizable=0;points=[];autosize=1;strokeColor=none;fillColor=none;" vertex="1" parent="4">
                    <mxGeometry x="10" y="300" width="120" height="30" as="geometry"/>
                </mxCell>
            </root>
        </mxGraphModel>
    </diagram>
</mxfile>